<svg width="40" height="40" viewBox="0 0 40 40" fill="none" xmlns="http://www.w3.org/2000/svg"><path d="M5.1001 10.0005C5.1001 9.72435 5.32396 9.50049 5.6001 9.50049H5.80004C6.07618 9.50049 6.30004 9.72435 6.30004 10.0005V29.9999C6.30004 30.2761 6.07618 30.4999 5.80004 30.4999H5.6001C5.32395 30.4999 5.1001 30.2761 5.1001 29.9999V10.0005Z" fill="#ffffff"></path><path d="M10.2993 28.3004C10.2993 29.0736 10.9261 29.7004 11.6993 29.7004H28.2989C29.0721 29.7004 29.6989 29.0736 29.6989 28.3004V11.7008C29.6989 10.9276 29.0721 10.3008 28.2989 10.3008H11.6993C10.9261 10.3008 10.2993 10.9276 10.2993 11.7008V28.3004Z" stroke="#ffffff" stroke-width="1.8"></path><path d="M33.6997 10.0005C33.6997 9.72435 33.9236 9.50049 34.1997 9.50049H34.3997C34.6758 9.50049 34.8997 9.72435 34.8997 10.0005V29.9999C34.8997 30.2761 34.6758 30.4999 34.3997 30.4999H34.1997C33.9236 30.4999 33.6997 30.2761 33.6997 29.9999V10.0005Z" fill="#ffffff" stroke="#ffffff"></path><path d="M17.4846 17.1081C17.4418 17.0866 17.3938 17.0763 17.3459 17.0784C17.298 17.0805 17.2515 17.0948 17.2108 17.12C17.17 17.1452 17.1363 17.1803 17.113 17.2222C17.0897 17.264 17.0774 17.3111 17.0774 17.359L17.4846 17.1081ZM17.4846 17.1081L22.7666 19.7491C22.8132 19.7725 22.8524 19.8083 22.8798 19.8526C22.9072 19.897 22.9217 19.9481 22.9217 20.0002C22.9217 20.0524 22.9072 20.1035 22.8798 20.1478C22.8524 20.1921 22.8133 20.2279 22.7669 20.2513C22.767 20.2513 22.7668 20.2513 22.7669 20.2513L17.4846 22.8924M17.4846 17.1081V22.8924ZM17.4846 22.8924C17.4418 22.9139 17.3938 22.9242 17.3459 22.9221C17.298 22.92 17.2515 22.9057 17.2108 22.8805L16.9481 23.3059M17.4846 22.8924L16.9481 23.3059ZM16.9481 23.3059C17.0614 23.3759 17.1907 23.4157 17.3238 23.4216C17.4568 23.4275 17.5892 23.3993 17.7082 23.3396L16.6763 23.0219C16.7412 23.1382 16.8348 23.236 16.9481 23.3059ZM16.9481 23.3059L17.2108 22.8805C17.17 22.8553 17.1363 22.8201 17.113 22.7783C17.0897 22.7365 17.0774 22.6894 17.0774 22.6414M16.9481 23.3059L17.0774 22.6414Z" fill="#ffffff"></path><path d="M17.4846 17.1081C17.4418 17.0866 17.3938 17.0763 17.3459 17.0784C17.298 17.0805 17.2515 17.0948 17.2108 17.12C17.17 17.1452 17.1363 17.1803 17.113 17.2222C17.0897 17.264 17.0774 17.3111 17.0774 17.359M17.4846 17.1081L17.0774 17.359M17.4846 17.1081L22.7666 19.7491C22.8132 19.7725 22.8524 19.8083 22.8798 19.8526M17.4846 17.1081V22.8924M17.0774 17.359V22.6414M22.8798 19.8526L23.3052 19.59M22.8798 19.8526C22.9072 19.897 22.9217 19.9481 22.9217 20.0002C22.9217 20.0524 22.9072 20.1035 22.8798 20.1478M22.8798 20.1478L23.3052 20.4105M22.8798 20.1478C22.8524 20.1921 22.8133 20.2279 22.7669 20.2513M22.7669 20.2513C22.7668 20.2513 22.767 20.2513 22.7669 20.2513ZM22.7669 20.2513L17.4846 22.8924M17.4846 22.8924C17.4418 22.9139 17.3938 22.9242 17.3459 22.9221C17.298 22.92 17.2515 22.9057 17.2108 22.8805M17.4846 22.8924L16.9481 23.3059M17.2108 22.8805L16.9481 23.3059M17.2108 22.8805C17.17 22.8553 17.1363 22.8201 17.113 22.7783C17.0897 22.7365 17.0774 22.6894 17.0774 22.6414M16.9481 23.3059C17.0614 23.3759 17.1907 23.4157 17.3238 23.4216C17.4568 23.4275 17.5892 23.3993 17.7082 23.3396L16.6763 23.0219C16.7412 23.1382 16.8348 23.236 16.9481 23.3059ZM16.9481 23.3059L17.0774 22.6414" stroke="#ffffff"></path></svg>